<svg class="injected-svg" id="svg-8951b9d0-11bf-441e-b5e2-5287240df080" height="100%" width="100%" viewBox="0 0 540 508" xmlns="http://www.w3.org/2000/svg"><g xmlns="http://www.w3.org/2000/svg" fill="#000000" id="icon-svg">
	<path transform="translate(198.5, 130.5) scale(0.7,0.7)" d="M 43.498 67.002 L 10.508 100.004 43.747 133.243 L 76.986 166.482 88.493 155.007 L 100 143.533 111.507 155.007 L 123.014 166.482 156.255 133.241 L 189.496 100 156.255 66.759 L 123.014 33.518 111.507 44.993 L 100 56.467 88.734 45.234 C 82.538 39.055, 77.248 34, 76.979 34 C 76.709 34, 61.643 48.851, 43.498 67.002 M 50.498 74.002 L 24.510 100.005 50.743 126.239 L 76.977 152.473 84.489 145.011 C 88.620 140.908, 92 137.093, 92 136.535 C 92 135.977, 84.017 127.528, 74.260 117.760 L 56.521 100 74.260 82.240 C 84.017 72.472, 92 64.045, 92 63.513 C 92 62.522, 77.976 48, 77.018 48 C 76.725 48, 64.791 59.701, 50.498 74.002 M 114.743 55.741 L 107.002 63.482 125.241 81.741 L 143.480 100 125.233 118.267 L 106.986 136.533 115.004 144.504 L 123.021 152.474 149.256 126.239 L 175.490 100.005 149.502 74.002 C 135.209 59.701, 123.283 48, 122.999 48 C 122.716 48, 119 51.483, 114.743 55.741 M 84.996 85.504 L 70.517 100.009 85.259 114.750 L 100 129.492 114.741 114.750 L 129.483 100.009 115.004 85.504 C 107.041 77.527, 100.289 71, 100 71 C 99.711 71, 92.959 77.527, 84.996 85.504" stroke="none" fill-rule="evenodd"></path>
</g><path xmlns="http://www.w3.org/2000/svg" id="SvgjsPath9566663" d="M22.78-52.51L1.87 0L10.58 0L14.14-8.90L40.10-8.90L43.69 0L52.37 0L31.49-52.51ZM27.14-42.22L36.95-16.88L17.29-16.88ZM57.57-52.51L57.57 0L93.42 0L93.42-8.09L66.36-8.09L66.36-24.65L86.79-24.65L86.79-32.78L66.36-32.78L66.36-44.38L93.42-44.38L93.42-52.51ZM149.96-52.48L127.26-25.12L104.55-52.48L99.90-52.48L99.90 0L108.62 0L108.62-36.77L127.26-14.14L145.90-36.73L145.90 0L154.61 0L154.61-52.48ZM194.24-52.55L194.24-22.96C194.24-15.05 189.40-8.13 181.42-8.13C172.96-8.13 168.57-15.56 168.57-22.96L168.57-52.55L159.78-52.55L159.78-22.60C159.78-9.78 168.79 0 181.38 0C194.42 0 203.03-10.03 203.03-22.60L203.03-52.55ZM211.74-52.55L211.74 0L247.56 0L247.56-8.13L220.50-8.13L220.50-52.55ZM287.40-52.55L287.40-22.96C287.40-15.05 282.57-8.13 274.58-8.13C266.13-8.13 261.73-15.56 261.73-22.96L261.73-52.55L252.94-52.55L252.94-22.60C252.94-9.78 261.95 0 274.55 0C287.59 0 296.19-10.03 296.19-22.60L296.19-52.55ZM302.89-9.19C310.29-2.71 318.27-0.04 325.27-0.04C336.55 0 345.34-6.67 345.34-15.75C345.34-35.82 312.23-26.26 312.23-37.79C312.23-42.48 316.66-44.57 322.23-44.57C326.99-44.57 332.59-42.96 336.51-40.10L341.49-46.25C335.63-50.46 328.60-52.51 322.19-52.51C312.01-52.48 303.55-47.42 303.55-37.17C303.55-18.20 336.69-26.88 336.69-15.71C336.69-11.24 331.64-8.02 325.05-8.06C319.85-8.06 313.66-10.11 308.28-15.20Z" fill="#000000" fontsize="75" transform="matrix(1,0,0,1,95.89500000000001,321.775)"></path></svg>